<?xml version="1.0" encoding="UTF-8" standalone="no"?>
<!DOCTYPE svg  PUBLIC '-//W3C//DTD SVG 1.1//EN'  'http://www.w3.org/Graphics/SVG/1.1/DTD/svg11.dtd'>
<svg xmlns="http://www.w3.org/2000/svg">
<defs>
<font id="UnitedSansSemiCond-Bold" horiz-adv-x="507">
<font-face underline-position="-50" font-weight="600" descent="-240" panose-1="0 0 0 0 0 0 0 0 0 0" units-per-em="1000" unicode-range="U+0020-2212" bbox="-43 -172 937 870" x-height="497" underline-thickness="50" font-family="UnitedSansSemiCond" ascent="760" cap-height="690"/>
<missing-glyph horiz-adv-x="1000"/>
<glyph glyph-name=".notdef" horiz-adv-x="1000"/>
<glyph glyph-name=".null" horiz-adv-x="0"/>
<glyph glyph-name="nonmarkingreturn" horiz-adv-x="333"/>
<glyph glyph-name="space" horiz-adv-x="193" unicode=" "/>
<glyph glyph-name="exclam" horiz-adv-x="235" unicode="!" d="M64 0v124h107v-124h-107zM64 188v502h107v-502h-107z"/>
<glyph glyph-name="quotedbl" horiz-adv-x="305" unicode='&quot;' d="M40 431v259h82v-259h-82zM183 431v259h82v-259h-82z"/>
<glyph glyph-name="numbersign" horiz-adv-x="452" unicode="#" d="M176 357h101v147h-101v-147zM94 170v113h-70v74h70v147h-70v74h70v112h82v-112h101v112h81v-112h71v-74h-71v-147h71v-74h-71v-113h-81v113h-101v-113h-82z"/>
<glyph glyph-name="dollar" horiz-adv-x="473" unicode="$" d="M123 20l-83 83v103h106v-66l35 -35h109l37 36v135l-28 28h-185l-72 71v211l84 84h63v97h96v-97h64l82 -83v-102h-106v65l-35 35h-105l-36 -36v-126l27 -28h186l71 -71v-220l-84 -84h-64v-98h-96v98h-66z"/>
<glyph glyph-name="percent" horiz-adv-x="653" unicode="%" d="M124 0l330 690h74l-330 -690h-74zM468 60h57l23 23v166l-23 22h-57l-23 -22v-166zM426 0l-61 61v210l61 61h140l61 -61v-210l-61 -61h-140zM128 419h58l23 23v165l-23 23h-58l-23 -23v-165zM87 358l-61 61v210l61 61h140l61 -61v-210l-61 -61h-140z"/>
<glyph glyph-name="ampersand" horiz-adv-x="510" unicode="&amp;" d="M188 84h113l35 35v192h-139l-44 -44v-148zM129 0l-83 83v202l70 70l-69 70v183l82 82h232l83 -83v-95h-107v60l-35 34h-114l-34 -35v-133l42 -43h304v-83h-58v-229l-82 -83h-231z"/>
<glyph glyph-name="quotesingle" horiz-adv-x="163" unicode="&apos;" d="M40 431v259h82v-259h-82z"/>
<glyph glyph-name="parenleft" horiz-adv-x="285" unicode="(" d="M148 -58l-87 86v633l87 86h109v-87h-51l-39 -39v-553l39 -39h51v-87h-109z"/>
<glyph glyph-name="parenright" horiz-adv-x="285" unicode=")" d="M224 28l-87 -86h-109v87h51l39 39v553l-39 39h-51v87h109l87 -86v-633z"/>
<glyph glyph-name="asterisk" horiz-adv-x="321" unicode="*" d="M107 406l-61 45l74 80l-106 24l24 72l97 -48l-15 111h80l-14 -111l97 48l24 -72l-107 -23l75 -81l-61 -45l-54 96z"/>
<glyph glyph-name="plus" horiz-adv-x="347" unicode="+" d="M11 304v82h120v137h85v-137h120v-82h-120v-138h-85v138h-120z"/>
<glyph glyph-name="comma" horiz-adv-x="186" unicode="," d="M41 -102v48h35l8 8v46h-43v128h105v-188l-42 -42h-63z"/>
<glyph glyph-name="hyphen" horiz-adv-x="240" unicode="-" d="M12 300v90h216v-90h-216z"/>
<glyph glyph-name="period" horiz-adv-x="186" unicode="." d="M40 0v127h106v-127h-106z"/>
<glyph glyph-name="slash" horiz-adv-x="284" unicode="/" d="M0 -65l190 819h93l-190 -819h-93z"/>
<glyph glyph-name="zero" d="M197 86h113l39 39v440l-39 39h-113l-39 -39v-440zM138 0l-87 87v516l87 87h231l87 -87v-516l-87 -87h-231z" unicode="0"/>
<glyph glyph-name="one" horiz-adv-x="387" unicode="1" d="M39 0v84h109v522h-109v84h216v-606h105v-84h-321z"/>
<glyph glyph-name="two" horiz-adv-x="455" unicode="2" d="M41 0v300l73 72h173l27 27v173l-32 32h-102l-31 -31v-77h-107v111l83 83h211l85 -84v-251l-73 -73h-173l-27 -27v-166h271v-89h-378z"/>
<glyph glyph-name="three" horiz-adv-x="482" unicode="3" d="M120 0l-83 84v118h106v-82l36 -36h116l34 35v149l-43 43h-170v87h170l43 43v129l-35 35h-115l-36 -36v-81h-106v118l83 84h233l83 -82v-183l-70 -70l70 -70v-202l-83 -83h-233z"/>
<glyph glyph-name="four" horiz-adv-x="482" unicode="4" d="M302 0v188h-285v71l99 431h96l-84 -412h174v412h106v-412h53v-90h-53v-188h-106z"/>
<glyph glyph-name="five" horiz-adv-x="468" unicode="5" d="M126 0l-82 83v119h106v-83l35 -34h104l35 35v218l-27 27h-104l-50 -50h-99v375h379v-89h-273v-197l48 47h157l76 -75v-292l-85 -84h-220z"/>
<glyph glyph-name="six" horiz-adv-x="499" unicode="6" d="M195 86h116l38 37v184l-34 33h-115l-42 -42v-175zM137 0l-86 86v518l86 86h234l84 -83v-110h-107v72l-35 36h-117l-38 -39v-188l47 48h169l81 -81v-259l-86 -86h-232z"/>
<glyph glyph-name="seven" horiz-adv-x="409" unicode="7" d="M133 0v250l143 348h-264v92h381v-71l-153 -372v-247h-107z"/>
<glyph glyph-name="eight" horiz-adv-x="504" unicode="8" d="M196 398h111l43 42v131l-35 36h-126l-35 -36v-131zM188 84h127l36 35v151l-44 44h-110l-44 -44v-151zM129 0l-83 83v203l70 70l-69 69v183l82 82h245l83 -82v-183l-70 -69l70 -70v-203l-82 -83h-246z"/>
<glyph glyph-name="nine" horiz-adv-x="499" unicode="9" d="M184 361h114l43 43v163l-38 37h-115l-37 -37v-173zM128 0l-83 83v115h106v-77l35 -36h116l39 39v200l-48 -48h-168l-81 81v247l86 86h232l85 -86v-518l-85 -86h-234z"/>
<glyph glyph-name="colon" horiz-adv-x="198" unicode=":" d="M46 294v127h106v-127h-106zM46 0v127h106v-127h-106z"/>
<glyph glyph-name="semicolon" horiz-adv-x="198" unicode=";" d="M47 293v128h105v-128h-105zM47 -102v48h35l8 8v46h-43v128h105v-188l-42 -42h-63z"/>
<glyph glyph-name="less" horiz-adv-x="379" unicode="&lt;" d="M343 144l-324 151v99l324 152v-94l-239 -107l239 -107v-94z"/>
<glyph glyph-name="equal" horiz-adv-x="349" unicode="=" d="M30 214v85h289v-85h-289zM30 386v85h289v-85h-289z"/>
<glyph glyph-name="greater" horiz-adv-x="379" unicode="&gt;" d="M360 295l-324 -151v94l239 107l-239 107v94l324 -152v-99z"/>
<glyph glyph-name="question" horiz-adv-x="446" unicode="?" d="M140 0v124h107v-124h-107zM140 187v143l66 66h84l20 19v154l-36 36h-109l-35 -35v-75h-107v112l83 83h226l84 -84v-236l-66 -66h-83l-20 -20v-97h-107z"/>
<glyph glyph-name="at" horiz-adv-x="776" unicode="@" d="M330 74h74l55 55v103h-127l-30 -30v-101zM166 -139l-118 118v542l118 118h444l118 -118v-440l-81 -81h-162l-5 71l-71 -71h-132l-76 76v143l76 76h182v101l-30 31h-88l-27 -27v-50h-103v72l76 75h194l80 -79v-349h40l33 33v390l-72 71h-347l-72 -71v-484l72 -71h368v-76 h-417z"/>
<glyph glyph-name="A" horiz-adv-x="469" unicode="A" d="M232 626l-70 -361h140zM10 0l147 690h154l148 -690h-105l-35 178h-174l-34 -178h-101z"/>
<glyph glyph-name="B" horiz-adv-x="504" unicode="B" d="M165 398h144l42 42v131l-35 36h-151v-209zM165 84h151l36 35v151l-44 44h-143v-230zM59 0v690h316l83 -82v-183l-70 -69l70 -70v-203l-82 -83h-317z"/>
<glyph glyph-name="C" horiz-adv-x="478" unicode="C" d="M138 0l-87 86v518l87 86h216l85 -85v-129h-106v90l-38 38h-98l-39 -39v-442l39 -38h98l38 37v95h106v-132l-85 -85h-216z"/>
<glyph glyph-name="D" horiz-adv-x="506" unicode="D" d="M165 86h145l39 39v440l-39 39h-145v-518zM58 0v690h311l86 -87v-516l-86 -87h-311z"/>
<glyph glyph-name="E" horiz-adv-x="430" unicode="E" d="M58 0v690h336v-89h-229v-208h210v-88h-210v-216h231v-89h-338z"/>
<glyph glyph-name="F" horiz-adv-x="404" unicode="F" d="M58 0v690h328v-89h-221v-219h203v-88h-203v-294h-107z"/>
<glyph glyph-name="G" horiz-adv-x="497" unicode="G" d="M138 0l-87 87v516l87 87h227l83 -83v-112h-106v74l-35 35h-110l-39 -39v-442l39 -39h110l37 37v156h-106v86h213v-277l-86 -86h-227z"/>
<glyph glyph-name="H" horiz-adv-x="514" unicode="H" d="M58 0v690h107v-300h184v300h106v-690h-106v290h-184v-290h-107z"/>
<glyph glyph-name="I" horiz-adv-x="355" unicode="I" d="M29 0v79h95v532h-95v79h297v-79h-95v-532h95v-79h-297z"/>
<glyph glyph-name="J" horiz-adv-x="332" unicode="J" d="M14 0v88h117l39 39v563h107v-603l-87 -87h-176z"/>
<glyph glyph-name="K" horiz-adv-x="498" unicode="K" d="M367 0l-114 313l-89 -165v-148h-106v690h106v-389l195 389h113l-148 -287l156 -403h-113z"/>
<glyph glyph-name="L" horiz-adv-x="388" unicode="L" d="M58 0v690h107v-600h202v-90h-309z"/>
<glyph glyph-name="M" horiz-adv-x="699" unicode="M" d="M58 0v690h163l128 -592l128 592h164v-690h-102v609l-137 -609h-117l-136 609v-609h-91z"/>
<glyph glyph-name="N" horiz-adv-x="519" unicode="N" d="M58 0v690h99l209 -480v480h94v-690h-99l-208 485v-485h-95z"/>
<glyph glyph-name="O" d="M197 86h113l39 39v440l-39 39h-113l-39 -39v-440zM138 0l-87 87v516l87 87h231l87 -87v-516l-87 -87h-231z" unicode="O"/>
<glyph glyph-name="P" horiz-adv-x="478" unicode="P" d="M165 345h143l37 37v189l-37 37h-143v-263zM58 0v690h308l86 -85v-257l-86 -85h-201v-263h-107z"/>
<glyph glyph-name="Q" d="M197 86h113l39 39v440l-39 39h-113l-39 -39v-440zM366 -150l-91 91v59h-137l-87 87v516l87 87h231l87 -87v-516l-87 -87v-23l62 -61z" unicode="Q"/>
<glyph glyph-name="R" horiz-adv-x="501" unicode="R" d="M165 372h150l38 38v161l-37 37h-151v-236zM58 0v690h317l84 -84v-229l-74 -74l82 -303h-109l-75 290h-118v-290h-107z"/>
<glyph glyph-name="S" horiz-adv-x="472" unicode="S" d="M122 0l-83 83v111h107v-74l35 -35h110l35 35v156l-27 27h-185l-72 73v230l84 84h222l83 -83v-111h-106v74l-35 35h-106l-35 -36v-148l27 -27h185l72 -73v-237l-84 -84h-227z"/>
<glyph glyph-name="T" horiz-adv-x="429" unicode="T" d="M161 0v599h-147v91h402v-91h-148v-599h-107z"/>
<glyph glyph-name="U" horiz-adv-x="501" unicode="U" d="M141 0l-86 87v603h106v-563l39 -39h101l39 39v563h106v-603l-86 -87h-219z"/>
<glyph glyph-name="V" horiz-adv-x="444" unicode="V" d="M146 0l-135 690h107l108 -605l108 605h99l-133 -690h-154z"/>
<glyph glyph-name="W" horiz-adv-x="679" unicode="W" d="M110 0l-98 690h103l70 -586l90 586h141l91 -586l68 586h91l-97 -690h-134l-93 588l-93 -588h-139z"/>
<glyph glyph-name="X" horiz-adv-x="469" unicode="X" d="M18 0l134 354l-129 336h112l100 -291l105 291h105l-132 -338l139 -352h-113l-107 296l-108 -296h-106z"/>
<glyph glyph-name="Y" horiz-adv-x="460" unicode="Y" d="M177 0v219l-168 471h114l110 -350l115 350h103l-168 -471v-219h-106z"/>
<glyph glyph-name="Z" horiz-adv-x="411" unicode="Z" d="M27 0v74l235 525h-231v91h349v-74l-235 -524h239v-92h-357z"/>
<glyph glyph-name="bracketleft" horiz-adv-x="285" unicode="[" d="M65 -58v805h192v-87h-87v-631h87v-87h-192z"/>
<glyph glyph-name="backslash" horiz-adv-x="284" unicode="\" d="M94 754l190 -819h-93l-190 819h93z"/>
<glyph glyph-name="bracketright" horiz-adv-x="285" unicode="]" d="M220 747v-805h-192v87h87v631h-87v87h192z"/>
<glyph glyph-name="asciicircum" horiz-adv-x="384" unicode="^" d="M16 357l117 333h118l118 -333h-93l-84 268l-85 -268h-91z"/>
<glyph glyph-name="underscore" horiz-adv-x="398" unicode="_" d="M-6 -106v70h409v-70h-409z"/>
<glyph glyph-name="grave" horiz-adv-x="253" unicode="`" d="M135 539l-76 76v47h59l75 -76v-47h-58z"/>
<glyph glyph-name="a" horiz-adv-x="447" unicode="a" d="M166 74h73l56 55v103h-128l-29 -30v-101zM112 0l-76 76v143l77 76h182v101l-30 31h-89l-26 -27v-50h-103v72l75 75h195l80 -79v-418h-76l-5 71l-71 -71h-133z"/>
<glyph glyph-name="b" horiz-adv-x="465" unicode="b" d="M216 74h70l31 32v284l-31 32h-63l-67 -67v-221zM55 0v690h101v-255l63 62h121l79 -79v-339l-79 -79h-133l-72 72l-4 -72h-76z"/>
<glyph glyph-name="c" horiz-adv-x="428" unicode="c" d="M125 0l-79 79v339l79 80h192l77 -78v-91h-102v67l-29 29h-85l-31 -31v-290l31 -31h85l29 29v67h102v-92l-77 -77h-192z"/>
<glyph glyph-name="d" horiz-adv-x="465" unicode="d" d="M179 74h70l60 60v221l-67 67h-63l-31 -32v-284zM125 0l-79 79v339l79 79h121l63 -62v255h102v-690h-77l-4 72l-72 -72h-133z"/>
<glyph glyph-name="e" horiz-adv-x="445" unicode="e" d="M146 293h156v103l-30 31h-95l-31 -31v-103zM125 0l-79 79v339l79 80h198l80 -80v-193h-257v-123l31 -31h98l26 27v53h102v-76l-75 -75h-203z"/>
<glyph glyph-name="f" horiz-adv-x="306" unicode="f" d="M77 0v418h-59v79h59v119l75 74h149v-77h-93l-29 -29v-87h113v-79h-113v-418h-102z"/>
<glyph glyph-name="g" horiz-adv-x="464" unicode="g" d="M179 94h67l63 62v204l-63 63h-67l-31 -31v-267zM124 -171l-72 72v65h99v-41l25 -25h100l33 32v150l-62 -62h-122l-79 79v319l79 79h129l75 -74l5 74h77v-589l-80 -79h-207z"/>
<glyph glyph-name="h" horiz-adv-x="456" unicode="h" d="M55 0v690h101v-255l63 62h107l80 -79v-418h-102v385l-31 31h-51l-66 -66v-350h-101z"/>
<glyph glyph-name="i" horiz-adv-x="221" unicode="i" d="M60 567v114h101v-114h-101zM161 0h-101v497h101v-497z"/>
<glyph glyph-name="j" horiz-adv-x="221" unicode="j" d="M59 567v114h102v-114h-102zM-43 -171v79h75l27 27v562h102v-591l-78 -77h-126z"/>
<glyph glyph-name="k" horiz-adv-x="448" unicode="k" d="M320 0l-89 231l-77 -119v-112h-102v690h102v-451l155 258h109l-119 -185l129 -312h-108z"/>
<glyph glyph-name="l" horiz-adv-x="221" unicode="l" d="M161 0h-101v690h101v-690z"/>
<glyph glyph-name="m" horiz-adv-x="687" unicode="m" d="M55 0v497h76l5 -76l76 76h103l65 -65l65 65h112l79 -79v-418h-101v385l-32 31h-48l-59 -59v-357h-102v385l-31 31h-41l-66 -66v-350h-101z"/>
<glyph glyph-name="n" horiz-adv-x="456" unicode="n" d="M55 0v497h76l5 -76l76 76h114l80 -79v-418h-102v385l-31 31h-51l-66 -66v-350h-101z"/>
<glyph glyph-name="o" horiz-adv-x="454" unicode="o" d="M179 72h96l31 32v290l-31 31h-96l-31 -31v-290zM125 0l-79 79v339l79 79h204l79 -79v-339l-79 -79h-204z"/>
<glyph glyph-name="p" horiz-adv-x="465" unicode="p" d="M216 76h70l31 31v285l-31 31h-67l-63 -62v-225zM55 -171v668h76l5 -74l74 74h130l79 -79v-339l-79 -79h-128l-56 56v-227h-101z"/>
<glyph glyph-name="q" horiz-adv-x="465" unicode="q" d="M179 76h67l63 63v222l-63 62h-67l-31 -31v-285zM309 -171v230l-59 -59h-125l-79 79v339l79 79h130l74 -74l5 74h77v-668h-102z"/>
<glyph glyph-name="r" horiz-adv-x="317" unicode="r" d="M55 0v497h76l5 -78l79 78h83v-90h-75l-67 -67v-340h-101z"/>
<glyph glyph-name="s" horiz-adv-x="430" unicode="s" d="M111 0l-72 72v74h101v-50l23 -24h99l27 27v95l-17 18h-170l-59 59v150l76 77h197l72 -72v-74h-101v50l-24 23h-91l-28 -27v-94l18 -17h169l60 -60v-150l-76 -77h-204z"/>
<glyph glyph-name="t" horiz-adv-x="336" unicode="t" d="M158 0l-79 79v339h-63v79h63v138h102v-138h125v-79h-125v-305l30 -31h95v-82h-148z"/>
<glyph glyph-name="u" horiz-adv-x="456" unicode="u" d="M130 0l-79 79v418h101v-385l31 -31h51l66 66v350h101v-497h-76l-5 76l-76 -76h-114z"/>
<glyph glyph-name="v" horiz-adv-x="396" unicode="v" d="M127 0l-119 497h102l91 -432l90 432h97l-119 -497h-142z"/>
<glyph glyph-name="w" horiz-adv-x="625" unicode="w" d="M92 0l-83 497h99l61 -429l83 429h134l82 -429l61 429h87l-83 -497h-138l-80 421l-81 -421h-142z"/>
<glyph glyph-name="x" horiz-adv-x="416" unicode="x" d="M296 0l-91 199l-88 -199h-104l124 251l-118 246h110l81 -195l86 195h100l-118 -240l125 -257h-107z"/>
<glyph glyph-name="y" horiz-adv-x="396" unicode="y" d="M127 0l-119 497h102l91 -434l91 434h96l-145 -606l-62 -63h-153v80h110l26 26l17 66h-54z"/>
<glyph glyph-name="z" horiz-adv-x="368" unicode="z" d="M24 0v62l201 354h-197v81h313v-62l-202 -354h205v-81h-320z"/>
<glyph glyph-name="braceleft" horiz-adv-x="299" unicode="{" d="M165 -58l-87 86v251l-28 28h-46v92h45l29 29v233l87 86h106v-87h-48l-39 -39v-214l-53 -53l53 -54v-232l39 -39h48v-87h-106z"/>
<glyph glyph-name="bar" horiz-adv-x="257" unicode="|" d="M79 -65v819h99v-819h-99z"/>
<glyph glyph-name="braceright" horiz-adv-x="299" unicode="}" d="M221 28l-87 -86h-106v87h48l39 39v232l53 54l-53 53v214l-39 39h-48v87h106l87 -86v-233l29 -29h45v-92h-46l-28 -28v-251z"/>
<glyph glyph-name="asciitilde" horiz-adv-x="396" unicode="~" d="M19 537v91l62 62h92l86 -86h19l24 25v61h76v-91l-62 -62h-93l-86 86h-18l-25 -25v-61h-75z"/>
<glyph glyph-name="exclamdown" horiz-adv-x="235" unicode="¡" d="M171 690v-124h-107v124h107zM171 502v-502h-107v502h107z"/>
<glyph glyph-name="cent" horiz-adv-x="471" unicode="¢" d="M132 70l-86 87v377l86 86h62v86h96v-86h62l85 -85v-116h-107v78l-37 38h-102l-38 -39v-303l38 -39h102l37 38v81h107v-118l-85 -85h-62v-87h-96v87h-62z"/>
<glyph glyph-name="sterling" horiz-adv-x="479" unicode="£" d="M33 0v84l47 47v160h-49v89h49v223l87 87h199l85 -85v-125h-106v88l-36 36h-85l-37 -37v-187h162v-89h-162v-162l-39 -39h303v-90h-418z"/>
<glyph glyph-name="yen" horiz-adv-x="460" unicode="¥" d="M36 227v63h116l-143 400h115l109 -349l113 349h105l-143 -400h115v-63h-138l-2 -7v-43h140v-63h-140v-114h-106v114h-141v63h141v43l-3 7h-138z"/>
<glyph glyph-name="section" horiz-adv-x="478" unicode="§" d="M45 331v275l84 84h223l82 -82v-119h-106v81l-35 35h-106l-35 -36v-158h245l38 -37v-43h-390zM124 -102l-82 83v119h106v-82l35 -35h111l36 36v161h-248l-37 37v43h391v-278l-84 -84h-228z"/>
<glyph glyph-name="dieresis" horiz-adv-x="335" unicode="¨" d="M59 552v92h77v-92h-77zM199 552v92h78v-92h-78z"/>
<glyph glyph-name="copyright" horiz-adv-x="678" unicode="©" d="M191 72h296l54 53v440l-54 53h-296l-54 -53v-440zM148 0l-97 96v498l97 96h383l96 -96v-498l-96 -96h-383zM257 130l-56 57v316l57 57h161l57 -57v-99h-87v71l-18 17h-65l-18 -18v-258l18 -18h66l17 17v71h87v-99l-56 -57h-163z"/>
<glyph glyph-name="ordfeminine" horiz-adv-x="326" unicode="ª" d="M130 403h53l34 35v59h-88l-20 -20v-53zM88 344l-58 58v92l58 58h130v57l-22 22h-62l-19 -19v-19h-78v41l56 56h144l59 -58v-288h-58l-5 48l-48 -48h-97z"/>
<glyph glyph-name="guillemotleft" horiz-adv-x="367" unicode="«" d="M257 144l-99 203l99 204h87l-100 -204l100 -203h-87zM114 144l-100 203l100 204h87l-100 -204l100 -203h-87z"/>
<glyph glyph-name="registered" horiz-adv-x="384" unicode="®" d="M162 497h48l15 15v45l-14 14h-49v-74zM108 331h168l37 38v244l-37 37h-168l-37 -37v-244zM88 291l-63 64v271l63 64h207l64 -64v-271l-64 -64h-207zM119 374v233h114l35 -34v-75l-28 -28l32 -96h-44l-28 86h-38v-86h-43z"/>
<glyph glyph-name="macron" horiz-adv-x="322" unicode="¯" d="M59 565v67h205v-67h-205z"/>
<glyph glyph-name="degree" horiz-adv-x="268" unicode="°" d="M103 504h62l17 17v102l-17 17h-62l-17 -17v-102zM74 453l-48 48v141l48 48h121l47 -48v-141l-47 -48h-121z"/>
<glyph glyph-name="twosuperior" horiz-adv-x="322" unicode="²" d="M31 335v148l48 47h119l15 16v63l-20 20h-61l-20 -20v-33h-80v60l55 54h150l55 -55v-119l-47 -47h-119l-15 -16v-54h180v-64h-260z"/>
<glyph glyph-name="threesuperior" horiz-adv-x="326" unicode="³" d="M82 335l-54 54v56h80v-31l19 -20h67l22 22v54l-15 16h-108v57h108l15 15v53l-20 20h-68l-20 -20v-32h-80v57l55 54h157l55 -55v-84l-37 -36l37 -37v-89l-55 -54h-158z"/>
<glyph glyph-name="acute" horiz-adv-x="253" unicode="´" d="M59 539v47l76 76h58v-47l-75 -76h-59z"/>
<glyph glyph-name="paragraph" horiz-adv-x="647" unicode="¶" d="M482 608h-77v-710h-106v234h-182l-85 85v388l85 85h472v-792h-107v710zM175 214h124v394h-124l-37 -37v-320z"/>
<glyph glyph-name="periodcentered" horiz-adv-x="198" unicode="·" d="M46 294v127h106v-127h-106z"/>
<glyph glyph-name="cedilla" horiz-adv-x="276" unicode="¸" d="M59 -164v45h86l8 9v23l-8 9h-41l-20 19v59h58v-37h42l33 -33v-61l-33 -33h-125z"/>
<glyph glyph-name="onesuperior" horiz-adv-x="271" unicode="¹" d="M25 335v63h76v229h-75v63h154v-292h73v-63h-228z"/>
<glyph glyph-name="ordmasculine" horiz-adv-x="326" unicode="º" d="M132 406h62l23 23v176l-23 24h-62l-23 -24v-176zM89 344l-59 59v229l59 58h149l58 -58v-229l-58 -59h-149z"/>
<glyph glyph-name="guillemotright" horiz-adv-x="367" unicode="»" d="M209 347l-99 -203h-87l100 203l-100 204h87zM353 347l-100 -203h-87l100 203l-100 204h87z"/>
<glyph glyph-name="onequarter" horiz-adv-x="711" unicode="¼" d="M580 1v84h-184v46l64 225h74l-54 -209h100v209h78v-209h33v-62h-33v-84h-78zM144 0l330 690h74l-330 -690h-74zM25 335v63h76v229h-75v63h154v-292h73v-63h-228z"/>
<glyph glyph-name="onehalf" horiz-adv-x="704" unicode="½" d="M413 1v148l48 47h119l15 16v63l-20 20h-61l-20 -20v-33h-80v60l55 54h150l55 -55v-119l-47 -47h-119l-15 -16v-54h180v-64h-260zM144 0l330 690h74l-330 -690h-74zM25 335v63h76v229h-75v63h154v-292h73v-63h-228z"/>
<glyph glyph-name="threequarters" horiz-adv-x="732" unicode="¾" d="M602 1v84h-184v46l64 225h74l-54 -209h100v209h78v-209h33v-62h-33v-84h-78zM166 0l330 690h74l-330 -690h-74zM82 335l-54 54v56h80v-31l19 -20h67l22 22v54l-15 16h-108v57h108l15 15v53l-20 20h-68l-20 -20v-32h-80v57l55 54h157l55 -55v-84l-37 -36l37 -37v-89 l-55 -54h-158z"/>
<glyph glyph-name="questiondown" horiz-adv-x="446" unicode="¿" d="M306 690v-124h-107v124h107zM306 503v-143l-66 -66h-84l-20 -19v-154l36 -36h109l35 35v75h107v-112l-83 -83h-226l-84 84v236l66 66h83l20 20v97h107z"/>
<glyph glyph-name="Agrave" horiz-adv-x="476" unicode="À" d="M227 736l-76 76v47h59l75 -76v-47h-58zM232 626l-70 -361h140zM10 0l147 690h154l148 -690h-105l-35 178h-174l-34 -178h-101z"/>
<glyph glyph-name="Aacute" horiz-adv-x="476" unicode="Á" d="M189 736v47l76 76h58v-47l-75 -76h-59zM232 626l-70 -361h140zM10 0l147 690h154l148 -690h-105l-35 178h-174l-34 -178h-101z"/>
<glyph glyph-name="Acircumflex" horiz-adv-x="476" unicode="Â" d="M119 742v41l72 73h92l72 -73v-41h-50l-64 64h-8l-64 -64h-50zM232 626l-70 -361h140zM10 0l147 690h154l148 -690h-105l-35 178h-174l-34 -178h-101z"/>
<glyph glyph-name="Atilde" horiz-adv-x="476" unicode="Ã" d="M113 743v63l41 41h71l49 -50h17l10 10v40h60v-63l-41 -41h-71l-50 50h-16l-10 -10v-40h-60zM232 626l-70 -361h140zM10 0l147 690h154l148 -690h-105l-35 178h-174l-34 -178h-101z"/>
<glyph glyph-name="Adieresis" horiz-adv-x="476" unicode="Ä" d="M128 749v92h77v-92h-77zM268 749v92h78v-92h-78zM232 626l-70 -361h140zM10 0l147 690h154l148 -690h-105l-35 178h-174l-34 -178h-101z"/>
<glyph glyph-name="Aring" horiz-adv-x="476" unicode="Å" d="M211 762h52l13 12v48l-13 12h-52l-12 -12v-48zM186 726l-34 35v74l34 35h103l34 -34v-75l-34 -35h-103zM232 626l-70 -361h140zM10 0l147 690h154l148 -690h-105l-35 178h-174l-34 -178h-101z"/>
<glyph glyph-name="AE" horiz-adv-x="654" unicode="Æ" d="M232 626l-70 -361h140zM10 0l147 690h461v-89h-288l44 -208h227v-88h-208l47 -216h180v-89h-266l-35 178h-174l-34 -178h-101z"/>
<glyph glyph-name="Ccedilla" horiz-adv-x="478" unicode="Ç" d="M138 0l-87 86v518l87 86h216l85 -85v-129h-106v90l-38 38h-98l-39 -39v-442l39 -38h98l38 37v95h106v-132l-85 -85h-85v-37h42l33 -33v-61l-33 -33h-125v45h86l8 9v23l-8 9h-41l-20 19v59h-73z"/>
<glyph glyph-name="Egrave" horiz-adv-x="430" unicode="È" d="M216 736l-76 76v47h59l75 -76v-47h-58zM58 0v690h336v-89h-229v-208h210v-88h-210v-216h231v-89h-338z"/>
<glyph glyph-name="Eacute" horiz-adv-x="430" unicode="É" d="M178 736v47l76 76h58v-47l-75 -76h-59zM58 0v690h336v-89h-229v-208h210v-88h-210v-216h231v-89h-338z"/>
<glyph glyph-name="Ecircumflex" horiz-adv-x="430" unicode="Ê" d="M58 0v690h336v-89h-229v-208h210v-88h-210v-216h231v-89h-338zM108 742v41l72 73h92l72 -73v-41h-50l-64 64h-8l-64 -64h-50z"/>
<glyph glyph-name="Edieresis" horiz-adv-x="430" unicode="Ë" d="M58 0v690h336v-89h-229v-208h210v-88h-210v-216h231v-89h-338zM118 749v92h77v-92h-77zM258 749v92h78v-92h-78z"/>
<glyph glyph-name="Igrave" horiz-adv-x="355" unicode="Ì" d="M167 736l-76 76v47h59l75 -76v-47h-58zM29 0v79h95v532h-95v79h297v-79h-95v-532h95v-79h-297z"/>
<glyph glyph-name="Iacute" horiz-adv-x="355" unicode="Í" d="M129 736v47l76 76h58v-47l-75 -76h-59zM29 0v79h95v532h-95v79h297v-79h-95v-532h95v-79h-297z"/>
<glyph glyph-name="Icircumflex" horiz-adv-x="355" unicode="Î" d="M59 742v41l72 73h92l72 -73v-41h-50l-64 64h-8l-64 -64h-50zM29 0v79h95v532h-95v79h297v-79h-95v-532h95v-79h-297z"/>
<glyph glyph-name="Idieresis" horiz-adv-x="355" unicode="Ï" d="M68 749v92h77v-92h-77zM208 749v92h78v-92h-78zM29 0v79h95v532h-95v79h297v-79h-95v-532h95v-79h-297z"/>
<glyph glyph-name="Eth" horiz-adv-x="517" unicode="Ð" d="M175 86h145l39 39v440l-39 39h-145v-214h86v-92h-86v-212zM18 298v92h51v300h310l87 -87v-516l-87 -87h-310v298h-51z"/>
<glyph glyph-name="Ntilde" horiz-adv-x="518" unicode="Ñ" d="M135 743v63l41 41h71l49 -50h17l10 10v40h60v-63l-41 -41h-71l-50 50h-16l-10 -10v-40h-60zM58 0v690h99l209 -480v480h94v-690h-99l-208 485v-485h-95z"/>
<glyph glyph-name="Ograve" d="M243 736l-76 76v47h59l75 -76v-47h-58zM197 86h113l39 39v440l-39 39h-113l-39 -39v-440zM138 0l-87 87v516l87 87h231l87 -87v-516l-87 -87h-231z" unicode="Ò"/>
<glyph glyph-name="Oacute" d="M197 86h113l39 39v440l-39 39h-113l-39 -39v-440zM138 0l-87 87v516l87 87h231l87 -87v-516l-87 -87h-231zM205 736v47l76 76h58v-47l-75 -76h-59z" unicode="Ó"/>
<glyph glyph-name="Ocircumflex" d="M197 86h113l39 39v440l-39 39h-113l-39 -39v-440zM138 0l-87 87v516l87 87h231l87 -87v-516l-87 -87h-231zM135 742v41l72 73h92l72 -73v-41h-50l-64 64h-8l-64 -64h-50z" unicode="Ô"/>
<glyph glyph-name="Otilde" d="M129 743v63l41 41h71l49 -50h17l10 10v40h60v-63l-41 -41h-71l-50 50h-16l-10 -10v-40h-60zM197 86h113l39 39v440l-39 39h-113l-39 -39v-440zM138 0l-87 87v516l87 87h231l87 -87v-516l-87 -87h-231z" unicode="Õ"/>
<glyph glyph-name="Odieresis" d="M197 86h113l39 39v440l-39 39h-113l-39 -39v-440zM138 0l-87 87v516l87 87h231l87 -87v-516l-87 -87h-231zM144 749v92h77v-92h-77zM284 749v92h78v-92h-78z" unicode="Ö"/>
<glyph glyph-name="multiply" horiz-adv-x="372" unicode="×" d="M79 179l-58 57l107 107l-107 108l58 57l107 -107l107 107l57 -57l-107 -108l107 -107l-57 -57l-107 107z"/>
<glyph glyph-name="Oslash" d="M314 83l39 39v446l-2 2l-155 -487h118zM156 120l155 487h-118l-39 -39v-446zM138 0l-87 87v516l87 87h231l87 -87v-516l-87 -87h-231z" unicode="Ø"/>
<glyph glyph-name="Ugrave" horiz-adv-x="501" unicode="Ù" d="M240 736l-76 76v47h59l75 -76v-47h-58zM141 0l-86 87v603h106v-563l39 -39h101l39 39v563h106v-603l-86 -87h-219z"/>
<glyph glyph-name="Uacute" horiz-adv-x="501" unicode="Ú" d="M141 0l-86 87v603h106v-563l39 -39h101l39 39v563h106v-603l-86 -87h-219zM202 736v47l76 76h58v-47l-75 -76h-59z"/>
<glyph glyph-name="Ucircumflex" horiz-adv-x="501" unicode="Û" d="M141 0l-86 87v603h106v-563l39 -39h101l39 39v563h106v-603l-86 -87h-219zM132 742v41l72 73h92l72 -73v-41h-50l-64 64h-8l-64 -64h-50z"/>
<glyph glyph-name="Udieresis" horiz-adv-x="501" unicode="Ü" d="M141 0l-86 87v603h106v-563l39 -39h101l39 39v563h106v-603l-86 -87h-219zM141 749v92h77v-92h-77zM281 749v92h78v-92h-78z"/>
<glyph glyph-name="Yacute" horiz-adv-x="460" unicode="Ý" d="M181 736v47l76 76h58v-47l-75 -76h-59zM177 0v219l-168 471h114l110 -350l115 350h103l-168 -471v-219h-106z"/>
<glyph glyph-name="Thorn" horiz-adv-x="482" unicode="Þ" d="M165 228h145l37 36v189l-37 36h-145v-261zM58 0v690h107v-119h203l85 -85v-255l-85 -85h-203v-146h-107z"/>
<glyph glyph-name="germandbls" horiz-adv-x="485" unicode="ß" d="M55 0v611l79 79h230l79 -79v-195l-53 -53l53 -54v-230l-79 -79h-162v73h109l31 31v195l-27 28h-113v72h113l27 26v161l-31 31h-124l-31 -31v-586h-101z"/>
<glyph glyph-name="agrave" horiz-adv-x="447" unicode="à" d="M206 539l-76 76v47h59l75 -76v-47h-58zM166 74h73l56 55v103h-128l-29 -30v-101zM112 0l-76 76v143l77 76h182v101l-30 31h-89l-26 -27v-50h-103v72l75 75h195l80 -79v-418h-76l-5 71l-71 -71h-133z"/>
<glyph glyph-name="aacute" horiz-adv-x="447" unicode="á" d="M168 539v47l76 76h58v-47l-75 -76h-59zM166 74h73l56 55v103h-128l-29 -30v-101zM112 0l-76 76v143l77 76h182v101l-30 31h-89l-26 -27v-50h-103v72l75 75h195l80 -79v-418h-76l-5 71l-71 -71h-133z"/>
<glyph glyph-name="acircumflex" horiz-adv-x="447" unicode="â" d="M98 545v41l72 73h92l72 -73v-41h-50l-64 64h-8l-64 -64h-50zM166 74h73l56 55v103h-128l-29 -30v-101zM112 0l-76 76v143l77 76h182v101l-30 31h-89l-26 -27v-50h-103v72l75 75h195l80 -79v-418h-76l-5 71l-71 -71h-133z"/>
<glyph glyph-name="atilde" horiz-adv-x="447" unicode="ã" d="M92 546v63l41 41h71l49 -50h17l10 10v40h60v-63l-41 -41h-71l-50 50h-16l-10 -10v-40h-60zM166 74h73l56 55v103h-128l-29 -30v-101zM112 0l-76 76v143l77 76h182v101l-30 31h-89l-26 -27v-50h-103v72l75 75h195l80 -79v-418h-76l-5 71l-71 -71h-133z"/>
<glyph glyph-name="adieresis" horiz-adv-x="447" unicode="ä" d="M107 552v92h77v-92h-77zM247 552v92h78v-92h-78zM166 74h73l56 55v103h-128l-29 -30v-101zM112 0l-76 76v143l77 76h182v101l-30 31h-89l-26 -27v-50h-103v72l75 75h195l80 -79v-418h-76l-5 71l-71 -71h-133z"/>
<glyph glyph-name="aring" horiz-adv-x="447" unicode="å" d="M190 565h52l13 12v48l-13 12h-52l-12 -12v-48zM165 529l-34 35v74l34 35h103l34 -34v-75l-34 -35h-103zM166 74h73l56 55v103h-128l-29 -30v-101zM112 0l-76 76v143l77 76h182v101l-30 31h-89l-26 -27v-50h-103v72l75 75h195l80 -79v-418h-76l-5 71l-71 -71h-133z"/>
<glyph glyph-name="ae" horiz-adv-x="694" unicode="æ" d="M395 292h156v104l-30 31h-95l-31 -31v-104zM165 74h93l36 36v116h-128l-29 -28v-97zM112 0l-76 76v139l77 77h181v105l-30 30h-88l-27 -27v-50h-103v72l76 76h176l47 -47l47 47h180l80 -80v-192h-257v-124l31 -31h98l26 27v53h102v-76l-75 -75h-185l-47 47l-47 -47h-186z "/>
<glyph glyph-name="ccedilla" horiz-adv-x="428" unicode="ç" d="M125 0l-79 79v339l79 80h192l77 -78v-91h-102v67l-29 29h-85l-31 -31v-290l31 -31h85l29 29v67h102v-92l-77 -77h-74v-37h42l33 -33v-61l-33 -33h-125v45h86l8 9v23l-8 9h-41l-20 19v59h-60z"/>
<glyph glyph-name="egrave" horiz-adv-x="445" unicode="è" d="M213 539l-76 76v47h59l75 -76v-47h-58zM146 293h156v103l-30 31h-95l-31 -31v-103zM125 0l-79 79v339l79 80h198l80 -80v-193h-257v-123l31 -31h98l26 27v53h102v-76l-75 -75h-203z"/>
<glyph glyph-name="eacute" horiz-adv-x="445" unicode="é" d="M175 539v47l76 76h58v-47l-75 -76h-59zM146 293h156v103l-30 31h-95l-31 -31v-103zM125 0l-79 79v339l79 80h198l80 -80v-193h-257v-123l31 -31h98l26 27v53h102v-76l-75 -75h-203z"/>
<glyph glyph-name="ecircumflex" horiz-adv-x="445" unicode="ê" d="M146 293h156v103l-30 31h-95l-31 -31v-103zM125 0l-79 79v339l79 80h198l80 -80v-193h-257v-123l31 -31h98l26 27v53h102v-76l-75 -75h-203zM105 545v41l72 73h92l72 -73v-41h-50l-64 64h-8l-64 -64h-50z"/>
<glyph glyph-name="edieresis" horiz-adv-x="445" unicode="ë" d="M146 293h156v103l-30 31h-95l-31 -31v-103zM125 0l-79 79v339l79 80h198l80 -80v-193h-257v-123l31 -31h98l26 27v53h102v-76l-75 -75h-203zM115 552v92h77v-92h-77zM255 552v92h78v-92h-78z"/>
<glyph glyph-name="igrave" horiz-adv-x="221" unicode="ì" d="M101 539l-76 76v47h59l75 -76v-47h-58zM161 0h-101v497h101v-497z"/>
<glyph glyph-name="iacute" horiz-adv-x="221" unicode="í" d="M62 539v47l76 76h58v-47l-75 -76h-59zM161 0h-101v497h101v-497z"/>
<glyph glyph-name="icircumflex" horiz-adv-x="221" unicode="î" d="M161 0h-101v497h101v-497zM-7 545v41l72 73h92l72 -73v-41h-50l-64 64h-8l-64 -64h-50z"/>
<glyph glyph-name="idieresis" horiz-adv-x="221" unicode="ï" d="M161 0h-101v497h101v-497zM2 552v92h77v-92h-77zM142 552v92h78v-92h-78z"/>
<glyph glyph-name="eth" horiz-adv-x="458" unicode="ð" d="M179 72h98l32 32v253l-65 65h-65l-31 -31v-287zM125 0l-79 79v339l79 79h121l63 -62v108l-125 125v22h100l110 -109l56 56h19v-77l-58 -58v-423l-80 -79h-206z"/>
<glyph glyph-name="ntilde" horiz-adv-x="456" unicode="ñ" d="M112 546v63l41 41h71l49 -50h17l10 10v40h60v-63l-41 -41h-71l-50 50h-16l-10 -10v-40h-60zM55 0v497h76l5 -76l76 76h114l80 -79v-418h-102v385l-31 31h-51l-66 -66v-350h-101z"/>
<glyph glyph-name="ograve" horiz-adv-x="454" unicode="ò" d="M216 539l-76 76v47h59l75 -76v-47h-58zM179 72h96l31 32v290l-31 31h-96l-31 -31v-290zM125 0l-79 79v339l79 79h204l79 -79v-339l-79 -79h-204z"/>
<glyph glyph-name="oacute" horiz-adv-x="454" unicode="ó" d="M178 539v47l76 76h58v-47l-75 -76h-59zM179 72h96l31 32v290l-31 31h-96l-31 -31v-290zM125 0l-79 79v339l79 79h204l79 -79v-339l-79 -79h-204z"/>
<glyph glyph-name="ocircumflex" horiz-adv-x="454" unicode="ô" d="M179 72h96l31 32v290l-31 31h-96l-31 -31v-290zM125 0l-79 79v339l79 79h204l79 -79v-339l-79 -79h-204zM108 545v41l72 73h92l72 -73v-41h-50l-64 64h-8l-64 -64h-50z"/>
<glyph glyph-name="otilde" horiz-adv-x="454" unicode="õ" d="M102 546v63l41 41h71l49 -50h17l10 10v40h60v-63l-41 -41h-71l-50 50h-16l-10 -10v-40h-60zM179 72h96l31 32v290l-31 31h-96l-31 -31v-290zM125 0l-79 79v339l79 79h204l79 -79v-339l-79 -79h-204z"/>
<glyph glyph-name="odieresis" horiz-adv-x="454" unicode="ö" d="M179 72h96l31 32v290l-31 31h-96l-31 -31v-290zM125 0l-79 79v339l79 79h204l79 -79v-339l-79 -79h-204zM117 552v92h77v-92h-77zM257 552v92h78v-92h-78z"/>
<glyph glyph-name="divide" horiz-adv-x="353" unicode="÷" d="M134 441v91h85v-91h-85zM16 301v86h321v-86h-321zM134 155v91h85v-91h-85z"/>
<glyph glyph-name="oslash" horiz-adv-x="454" unicode="ø" d="M146 119l135 307l-1 1h-102l-34 -33v-273zM175 70h102l33 33v272l-2 2l-135 -306zM125 0l-79 79v339l79 79h204l79 -79v-339l-79 -79h-204z"/>
<glyph glyph-name="ugrave" horiz-adv-x="456" unicode="ù" d="M215 539l-76 76v47h59l75 -76v-47h-58zM130 0l-79 79v418h101v-385l31 -31h51l66 66v350h101v-497h-76l-5 76l-76 -76h-114z"/>
<glyph glyph-name="uacute" horiz-adv-x="456" unicode="ú" d="M177 539v47l76 76h58v-47l-75 -76h-59zM130 0l-79 79v418h101v-385l31 -31h51l66 66v350h101v-497h-76l-5 76l-76 -76h-114z"/>
<glyph glyph-name="ucircumflex" horiz-adv-x="456" unicode="û" d="M130 0l-79 79v418h101v-385l31 -31h51l66 66v350h101v-497h-76l-5 76l-76 -76h-114zM107 545v41l72 73h92l72 -73v-41h-50l-64 64h-8l-64 -64h-50z"/>
<glyph glyph-name="udieresis" horiz-adv-x="456" unicode="ü" d="M130 0l-79 79v418h101v-385l31 -31h51l66 66v350h101v-497h-76l-5 76l-76 -76h-114zM117 552v92h77v-92h-77zM257 552v92h78v-92h-78z"/>
<glyph glyph-name="yacute" horiz-adv-x="396" unicode="ý" d="M149 539v47l76 76h58v-47l-75 -76h-59zM127 0l-119 497h102l91 -434l91 434h96l-145 -606l-62 -63h-153v80h110l26 26l17 66h-54z"/>
<glyph glyph-name="thorn" horiz-adv-x="465" unicode="þ" d="M216 76h70l31 31v285l-31 31h-67l-63 -63v-224zM55 -171v861h101v-255l63 62h121l79 -79v-339l-79 -79h-128l-56 56v-227h-101z"/>
<glyph glyph-name="OE" horiz-adv-x="714" unicode="Œ" d="M197 86h145v518h-145l-39 -39v-440zM138 0l-87 87v516l87 87h540v-89h-230v-208h211v-88h-211v-216h231v-89h-541z"/>
<glyph glyph-name="oe" horiz-adv-x="706" unicode="œ" d="M407 293h156v103l-31 31h-94l-31 -31v-103zM178 73h97l31 31v290l-31 31h-97l-31 -31v-290zM125 0l-79 79v339l79 80h184l48 -47l47 47h180l79 -80v-193h-256v-123l30 -31h98l27 27v53h101v-76l-75 -75h-185l-46 47l-47 -47h-185z"/>
<glyph glyph-name="Scaron" horiz-adv-x="472" unicode="Š" d="M122 0l-83 83v111h107v-74l35 -35h110l35 35v156l-27 27h-185l-72 73v230l84 84h222l83 -83v-111h-106v74l-35 35h-106l-35 -36v-148l27 -27h185l72 -73v-237l-84 -84h-227zM190 742l-72 71v43h50l64 -65h8l64 65h50v-43l-72 -71h-92z"/>
<glyph glyph-name="scaron" horiz-adv-x="430" unicode="š" d="M111 0l-72 72v74h101v-50l23 -24h99l27 27v95l-17 18h-170l-59 59v150l76 77h197l72 -72v-74h-101v50l-24 23h-91l-28 -27v-94l18 -17h169l60 -60v-150l-76 -77h-204zM170 545l-72 71v43h50l64 -65h8l64 65h50v-43l-72 -71h-92z"/>
<glyph glyph-name="Ydieresis" horiz-adv-x="460" unicode="Ÿ" d="M121 749v92h77v-92h-77zM261 749v92h78v-92h-78zM177 0v219l-168 471h114l110 -350l115 350h103l-168 -471v-219h-106z"/>
<glyph glyph-name="circumflex" horiz-adv-x="354" unicode="ˆ" d="M59 545v41l72 73h92l72 -73v-41h-50l-64 64h-8l-64 -64h-50z"/>
<glyph glyph-name="tilde" horiz-adv-x="366" unicode="˜" d="M59 546v63l41 41h71l49 -50h17l10 10v40h60v-63l-41 -41h-71l-50 50h-16l-10 -10v-40h-60z"/>
<glyph glyph-name="endash" horiz-adv-x="334" unicode="–" d="M12 300v90h311v-90h-311z"/>
<glyph glyph-name="emdash" horiz-adv-x="452" unicode="—" d="M12 300v90h428v-90h-428z"/>
<glyph glyph-name="quoteleft" horiz-adv-x="183" unicode="‘" d="M39 464v184l42 42h63v-48h-33l-10 -10v-44h43v-124h-105z"/>
<glyph glyph-name="quotesinglbase" horiz-adv-x="183" unicode="‚" d="M39 -102v48h34l9 9v45h-43v124h105v-184l-42 -42h-63z"/>
<glyph glyph-name="quotedblleft" horiz-adv-x="336" unicode="“" d="M192 464v184l42 42h63v-48h-33l-10 -10v-44h43v-124h-105zM39 464v184l42 42h63v-48h-34l-9 -10v-44h43v-124h-105z"/>
<glyph glyph-name="quotedblright" horiz-adv-x="336" unicode="”" d="M144 690v-184l-42 -42h-63v48h33l10 10v44h-43v124h105zM297 690v-184l-42 -42h-63v48h34l9 10v44h-43v124h105z"/>
<glyph glyph-name="dagger" horiz-adv-x="264" unicode="†" d="M92 265v263h-70v69h70v93h80v-93h70v-69h-70v-263h-80z"/>
<glyph glyph-name="daggerdbl" horiz-adv-x="264" unicode="‡" d="M92 265v87h-70v69h70v113h-70v69h70v87h80v-87h70v-69h-70v-113h70v-69h-70v-87h-80z"/>
<glyph glyph-name="ellipsis" horiz-adv-x="522" unicode="…" d="M382 0v127h106v-127h-106zM208 0v127h106v-127h-106zM34 0v127h106v-127h-106z"/>
<glyph glyph-name="perthousand" horiz-adv-x="963" unicode="‰" d="M124 0l330 690h74l-330 -690h-74zM777 60h58l23 23v166l-23 22h-58l-23 -22v-166zM736 0l-61 61v210l61 61h139l62 -61v-210l-61 -61h-140zM468 60h57l23 23v166l-23 22h-57l-23 -22v-166zM426 0l-61 61v210l61 61h140l61 -61v-210l-61 -61h-140zM128 419h58l23 23v165 l-23 23h-58l-23 -23v-165zM87 358l-61 61v210l61 61h140l61 -61v-210l-61 -61h-140z"/>
<glyph glyph-name="guilsinglleft" horiz-adv-x="223" unicode="‹" d="M113 144l-99 203l99 204h87l-100 -204l100 -203h-87z"/>
<glyph glyph-name="guilsinglright" horiz-adv-x="223" unicode="›" d="M209 347l-99 -203h-87l100 203l-100 204h87z"/>
<glyph glyph-name="fraction" horiz-adv-x="404" unicode="⁄" d="M0 0l330 690h74l-330 -690h-74z"/>
<glyph glyph-name="Euro" horiz-adv-x="500" unicode="€" d="M22 376v65h47v162l87 87h220l85 -85v-118h-106v80l-38 37h-104l-37 -37v-126h182v-65h-182v-55h182v-64h-182v-135l37 -38h104l38 38v83h106v-120l-85 -85h-220l-87 87v170h-47v64h47v55h-47z"/>
<glyph glyph-name="trademark" horiz-adv-x="500" unicode="™" d="M204 402v288h79l48 -231l48 231h78v-288h-48v244l-53 -244h-54l-52 243v-243h-46zM71 402v245h-60v43h174v-43h-59v-245h-55z"/>
<glyph glyph-name="minus" horiz-adv-x="292" unicode="−" d="M12 301v89h269v-89h-269z"/>
</font>
</defs>
</svg>
